<?xml version="1.0" encoding="UTF-8"?>
<svg id="Layer_1" data-name="Layer 1" xmlns="http://www.w3.org/2000/svg" viewBox="0 0 288.33 288">
  <path d="M78.5.12l130.36-.12c42.47,2.13,77.05,36.72,79.44,79.03l.02,129.24c-2.03,42.63-36.56,77.23-79.12,79.71l-129.39.02C37.16,285.98,2.44,251.48.02,208.97l-.02-129.96C2.47,37.03,36.36,2.65,78.5.12ZM77.42,22.44c-29.25,2.75-52.91,26.95-55.08,56.21l.02,131.4c2.61,29.3,26.37,52.99,55.68,55.61h132.25c29.3-2.63,53.06-26.35,55.68-55.61V77.95c-2.62-29.51-26.78-53.44-56.38-55.63l-132.17.13Z"/>
  <path d="M137.24,66.71c69.16-5.03,110.92,74.03,66.21,127.33-37.1,44.22-107.96,33.04-130.7-19.56-20.62-47.71,12.53-103.98,64.5-107.76ZM140.85,88.67c-43.56,2.73-67.24,52.26-41.66,87.84,23.44,32.6,73.75,29.74,93.33-5.27,21.38-38.23-7.96-85.31-51.67-82.57Z"/>
  <path d="M225.53,44.4c22.19-2.26,24.53,30.63,4.54,32.97-23.48,2.75-25.95-30.79-4.54-32.97Z"/>
</svg>