<?xml version="1.0" encoding="UTF-8"?>
<svg id="Layer_1" xmlns="http://www.w3.org/2000/svg" version="1.1" viewBox="0 0 800 800">
  <!-- Generator: Adobe Illustrator 29.7.1, SVG Export Plug-In . SVG Version: 2.1.1 Build 8)  -->
  <defs>
    <style>
      .st0 {
        fill: none;
        stroke: #fff;
        stroke-linejoin: round;
        stroke-width: 40px;
      }
    </style>
  </defs>
  <path class="st0" d="M686.5,148.7c31.6,8.5,56.4,33.3,64.8,64.8,15.3,57.2,15.3,176.5,15.3,176.5,0,0,0,119.3-15.3,176.5-8.4,31.6-33.3,56.4-64.8,64.8-57.2,15.3-286.5,15.3-286.5,15.3,0,0-229.3,0-286.5-15.3-31.6-8.4-56.4-33.3-64.8-64.8-15.3-57.2-15.3-176.5-15.3-176.5,0,0,0-119.3,15.3-176.5,8.5-31.6,33.3-56.4,64.8-64.8,57.2-15.3,286.5-15.3,286.5-15.3,0,0,229.3,0,286.5,15.3ZM517.1,390l-190.5,110v-220l190.5,110Z"/>
</svg>